<svg xmlns="http://www.w3.org/2000/svg" id="Layer_1" x="0" y="0" version="1.1" viewBox="0 0 100 100" xml:space="preserve"><path fill="#f36c00" d="M2 2h96v96H2z"/><path fill="#c05600" d="M98 53.946L73.753 29.708l-.01.01c-.5-.5-1.11-.89-1.83-1.07l-2.22-.57c-.31-.08-.63-.12-.95-.12-1.91 0-3.6 1.38-4.1 3.35l-.96 3.75c-.07.26-.03.53.11.76.05.09.11.17.19.23l2.93 2.93-3.01-.76c-.33-.08-.64-.23-.92-.43l-4.94 19.29c-.29 1.14-.27 2.4.05 3.64l1.52 5.76c-2.34.3-4.22 1.3-5.16 2.82-.81 1.31-4.41.87-8.95-1.11-.64-.28-1.35-.4-2.1-.34-1 .07-3.18-.17-6.35-2.55-2.42-1.81-6.33-.92-11.61 2.67-.46.31-.58.93-.27 1.38.04.06.09.09.13.14l-.03-.01L53.795 98H98V53.946z"/><path fill="#fff" d="M72.18 40.323l-8.274-2.108a2.799 2.799 0 01-.927-.422l-4.94 19.284c-.29 1.14-.27 2.4.05 3.64l1.523 5.763c-2.339.295-4.218 1.294-5.158 2.813-.815 1.319-4.413.87-8.954-1.108a4.373 4.373 0 00-2.098-.34c-1.004.07-3.176-.164-6.351-2.546-2.416-1.813-6.323-.918-11.612 2.665a1 1 0 001.122 1.657c4.377-2.966 7.676-3.931 9.29-2.722 3.695 2.771 6.407 3.04 7.693 2.94.428-.03.816.03 1.156.18 2.094.912 5.164 2.024 7.688 2.024 1.61 0 2.996-.452 3.766-1.697.867-1.4 2.97-1.924 4.724-1.96h.003c.063-.001.127-.007.189-.007.003 0 .007.002.009 0 .462 0 .834-.32.949-.747l4.492-4.775c.83-.88 1.43-1.99 1.74-3.19l4.94-19.273c-.09.008-.178.022-.27.022a3.03 3.03 0 01-.75-.093zM71.91 28.647l-2.22-.57c-.31-.08-.63-.12-.95-.12-1.91 0-3.6 1.38-4.1 3.35l-.96 3.75c-.07.26-.03.53.11.76.13.23.35.4.61.46l8.28 2.11a1.012 1.012 0 001.22-.72l.96-3.76c.59-2.34-.73-4.7-2.95-5.26z"/></svg>