<svg xmlns="http://www.w3.org/2000/svg" id="Layer_1" x="0" y="0" version="1.1" viewBox="0 0 100 100" xml:space="preserve"><path fill="#dc6e79" d="M2 2h96v96H2z"/><path fill="#a1334b" d="M61.16 25.29L45.6 40.85l-6.76-6.76a.996.996 0 1 0-1.41 1.41l20.52 20.52c-.01.01-.02.01-.03.02L50 63.96l-7.92-7.92a.996.996 0 0 0-1.41 0 .996.996 0 0 0 0 1.41l7.92 7.92-7.92 7.92c-.39.39-.39 1.03 0 1.42L63.958 98H98V60.72l-35.43-35.43a.996.996 0 0 0-1.41 0z"/><path fill="#fff" d="M59.335 56.038a1 1 0 00-1.414 0L50 63.958l-7.92-7.92a1 1 0 10-1.415 1.414l7.92 7.92-7.92 7.921a1 1 0 101.414 1.414L50 66.787l7.92 7.92a.997.997 0 001.415 0 1 1 0 000-1.414l-7.92-7.92 7.92-7.92a1 1 0 000-1.415zM62.57 25.293a1 1 0 00-1.414 0L45.602 40.848l-6.758-6.758a1 1 0 10-1.414 1.414l7.465 7.465a1 1 0 001.414 0L62.57 26.707a1 1 0 000-1.414z"/></svg>